<mxfile host="drawio-plugin" agent="Mozilla/5.0 (Windows NT 10.0; Win64; x64) AppleWebKit/537.36 (KHTML, like Gecko) Chrome/122.0.0.0 Safari/537.36" modified="2024-11-11T09:57:25.945Z" etag="CUQ64Kp63jOy_IxfI49d" version="22.1.22" type="embed" pages="4">
  <diagram name="HLD" id="vN9NfzB94TNWT3aM2199">
    <mxGraphModel dx="1271" dy="424" grid="1" gridSize="10" guides="1" tooltips="1" connect="1" arrows="1" fold="1" page="1" pageScale="1" pageWidth="850" pageHeight="1100" math="0" shadow="0">
      <root>
        <mxCell id="0" />
        <mxCell id="1" parent="0" />
        <mxCell id="OQg5dU_QE5ItQjEPp5DZ-14" style="edgeStyle=orthogonalEdgeStyle;rounded=0;orthogonalLoop=1;jettySize=auto;html=1;" edge="1" parent="1" source="OQg5dU_QE5ItQjEPp5DZ-1" target="OQg5dU_QE5ItQjEPp5DZ-4">
          <mxGeometry relative="1" as="geometry" />
        </mxCell>
        <mxCell id="OQg5dU_QE5ItQjEPp5DZ-1" value="Actor" style="shape=umlActor;verticalLabelPosition=bottom;verticalAlign=top;html=1;outlineConnect=0;" vertex="1" parent="1">
          <mxGeometry x="22" y="310" width="30" height="60" as="geometry" />
        </mxCell>
        <mxCell id="OQg5dU_QE5ItQjEPp5DZ-10" style="edgeStyle=orthogonalEdgeStyle;rounded=0;orthogonalLoop=1;jettySize=auto;html=1;entryX=0;entryY=0.5;entryDx=0;entryDy=0;" edge="1" parent="1" source="OQg5dU_QE5ItQjEPp5DZ-4" target="OQg5dU_QE5ItQjEPp5DZ-8">
          <mxGeometry relative="1" as="geometry" />
        </mxCell>
        <mxCell id="OQg5dU_QE5ItQjEPp5DZ-11" style="edgeStyle=orthogonalEdgeStyle;rounded=0;orthogonalLoop=1;jettySize=auto;html=1;entryX=0;entryY=0.5;entryDx=0;entryDy=0;" edge="1" parent="1" source="OQg5dU_QE5ItQjEPp5DZ-4" target="OQg5dU_QE5ItQjEPp5DZ-7">
          <mxGeometry relative="1" as="geometry" />
        </mxCell>
        <mxCell id="OQg5dU_QE5ItQjEPp5DZ-12" style="edgeStyle=orthogonalEdgeStyle;rounded=0;orthogonalLoop=1;jettySize=auto;html=1;entryX=0;entryY=0.5;entryDx=0;entryDy=0;" edge="1" parent="1" source="OQg5dU_QE5ItQjEPp5DZ-4" target="OQg5dU_QE5ItQjEPp5DZ-9">
          <mxGeometry relative="1" as="geometry" />
        </mxCell>
        <mxCell id="OQg5dU_QE5ItQjEPp5DZ-4" value="API GATEWAY" style="ellipse;whiteSpace=wrap;html=1;aspect=fixed;" vertex="1" parent="1">
          <mxGeometry x="150" y="300" width="100" height="100" as="geometry" />
        </mxCell>
        <mxCell id="OQg5dU_QE5ItQjEPp5DZ-16" style="edgeStyle=orthogonalEdgeStyle;rounded=0;orthogonalLoop=1;jettySize=auto;html=1;" edge="1" parent="1" source="OQg5dU_QE5ItQjEPp5DZ-7" target="OQg5dU_QE5ItQjEPp5DZ-15">
          <mxGeometry relative="1" as="geometry" />
        </mxCell>
        <mxCell id="OQg5dU_QE5ItQjEPp5DZ-7" value="ORDER-SERVICE" style="rounded=1;whiteSpace=wrap;html=1;" vertex="1" parent="1">
          <mxGeometry x="420" y="320" width="120" height="60" as="geometry" />
        </mxCell>
        <mxCell id="OQg5dU_QE5ItQjEPp5DZ-8" value="MENU-service" style="rounded=1;whiteSpace=wrap;html=1;" vertex="1" parent="1">
          <mxGeometry x="420" y="140" width="120" height="60" as="geometry" />
        </mxCell>
        <mxCell id="OQg5dU_QE5ItQjEPp5DZ-9" value="USER-SERVICE/Auth-server&lt;br&gt;" style="rounded=1;whiteSpace=wrap;html=1;" vertex="1" parent="1">
          <mxGeometry x="420" y="520" width="120" height="60" as="geometry" />
        </mxCell>
        <mxCell id="OQg5dU_QE5ItQjEPp5DZ-15" value="Notification-SERVICE" style="rounded=1;whiteSpace=wrap;html=1;" vertex="1" parent="1">
          <mxGeometry x="700" y="320" width="120" height="60" as="geometry" />
        </mxCell>
      </root>
    </mxGraphModel>
  </diagram>
  <diagram id="0Okw6sPllyS1DoF9pYIr" name="ER-diagram">
    <mxGraphModel dx="2121" dy="424" grid="1" gridSize="10" guides="1" tooltips="1" connect="1" arrows="1" fold="1" page="1" pageScale="1" pageWidth="850" pageHeight="1100" math="0" shadow="0">
      <root>
        <mxCell id="0" />
        <mxCell id="1" parent="0" />
        <mxCell id="kdnyoExdMql0QSxu1-PT-25" style="edgeStyle=orthogonalEdgeStyle;rounded=0;orthogonalLoop=1;jettySize=auto;html=1;entryX=0.033;entryY=0.75;entryDx=0;entryDy=0;entryPerimeter=0;" parent="1" source="kdnyoExdMql0QSxu1-PT-23" target="kdnyoExdMql0QSxu1-PT-5" edge="1">
          <mxGeometry relative="1" as="geometry">
            <Array as="points">
              <mxPoint x="204" y="215" />
            </Array>
          </mxGeometry>
        </mxCell>
        <mxCell id="kdnyoExdMql0QSxu1-PT-3" style="edgeStyle=orthogonalEdgeStyle;rounded=0;orthogonalLoop=1;jettySize=auto;html=1;entryX=0;entryY=0.5;entryDx=0;entryDy=0;" parent="1" source="kdnyoExdMql0QSxu1-PT-5" target="kdnyoExdMql0QSxu1-PT-27" edge="1">
          <mxGeometry relative="1" as="geometry" />
        </mxCell>
        <mxCell id="kdnyoExdMql0QSxu1-PT-4" style="edgeStyle=orthogonalEdgeStyle;rounded=0;orthogonalLoop=1;jettySize=auto;html=1;entryX=1;entryY=0.75;entryDx=0;entryDy=0;" parent="1" source="kdnyoExdMql0QSxu1-PT-5" target="kdnyoExdMql0QSxu1-PT-41" edge="1">
          <mxGeometry relative="1" as="geometry" />
        </mxCell>
        <mxCell id="kdnyoExdMql0QSxu1-PT-5" value="Menu" style="ellipse;whiteSpace=wrap;html=1;" parent="1" vertex="1">
          <mxGeometry x="200" y="160" width="120" height="80" as="geometry" />
        </mxCell>
        <mxCell id="kdnyoExdMql0QSxu1-PT-6" value="" style="edgeStyle=orthogonalEdgeStyle;rounded=0;orthogonalLoop=1;jettySize=auto;html=1;" parent="1" source="kdnyoExdMql0QSxu1-PT-9" target="kdnyoExdMql0QSxu1-PT-36" edge="1">
          <mxGeometry relative="1" as="geometry" />
        </mxCell>
        <mxCell id="kdnyoExdMql0QSxu1-PT-7" value="" style="edgeStyle=orthogonalEdgeStyle;rounded=0;orthogonalLoop=1;jettySize=auto;html=1;" parent="1" source="kdnyoExdMql0QSxu1-PT-9" target="kdnyoExdMql0QSxu1-PT-37" edge="1">
          <mxGeometry relative="1" as="geometry" />
        </mxCell>
        <mxCell id="kdnyoExdMql0QSxu1-PT-8" value="" style="edgeStyle=orthogonalEdgeStyle;rounded=0;orthogonalLoop=1;jettySize=auto;html=1;" parent="1" source="kdnyoExdMql0QSxu1-PT-9" target="kdnyoExdMql0QSxu1-PT-38" edge="1">
          <mxGeometry relative="1" as="geometry" />
        </mxCell>
        <mxCell id="kdnyoExdMql0QSxu1-PT-9" value="&lt;div&gt;order&lt;/div&gt;" style="ellipse;whiteSpace=wrap;html=1;" parent="1" vertex="1">
          <mxGeometry x="660" y="585" width="120" height="90" as="geometry" />
        </mxCell>
        <mxCell id="kdnyoExdMql0QSxu1-PT-10" value="" style="edgeStyle=orthogonalEdgeStyle;rounded=0;orthogonalLoop=1;jettySize=auto;html=1;" parent="1" source="kdnyoExdMql0QSxu1-PT-13" target="kdnyoExdMql0QSxu1-PT-33" edge="1">
          <mxGeometry relative="1" as="geometry" />
        </mxCell>
        <mxCell id="kdnyoExdMql0QSxu1-PT-11" value="" style="edgeStyle=orthogonalEdgeStyle;rounded=0;orthogonalLoop=1;jettySize=auto;html=1;" parent="1" source="kdnyoExdMql0QSxu1-PT-13" target="kdnyoExdMql0QSxu1-PT-34" edge="1">
          <mxGeometry relative="1" as="geometry" />
        </mxCell>
        <mxCell id="kdnyoExdMql0QSxu1-PT-12" value="" style="edgeStyle=orthogonalEdgeStyle;rounded=0;orthogonalLoop=1;jettySize=auto;html=1;" parent="1" source="kdnyoExdMql0QSxu1-PT-13" target="kdnyoExdMql0QSxu1-PT-35" edge="1">
          <mxGeometry relative="1" as="geometry" />
        </mxCell>
        <mxCell id="kdnyoExdMql0QSxu1-PT-13" value="Restorent" style="ellipse;whiteSpace=wrap;html=1;" parent="1" vertex="1">
          <mxGeometry x="150" y="590" width="120" height="80" as="geometry" />
        </mxCell>
        <mxCell id="kdnyoExdMql0QSxu1-PT-14" value="" style="edgeStyle=orthogonalEdgeStyle;rounded=0;orthogonalLoop=1;jettySize=auto;html=1;" parent="1" source="kdnyoExdMql0QSxu1-PT-18" edge="1">
          <mxGeometry relative="1" as="geometry">
            <mxPoint x="660" y="60" as="targetPoint" />
          </mxGeometry>
        </mxCell>
        <mxCell id="kdnyoExdMql0QSxu1-PT-15" value="" style="edgeStyle=orthogonalEdgeStyle;rounded=0;orthogonalLoop=1;jettySize=auto;html=1;" parent="1" source="kdnyoExdMql0QSxu1-PT-18" target="kdnyoExdMql0QSxu1-PT-29" edge="1">
          <mxGeometry relative="1" as="geometry" />
        </mxCell>
        <mxCell id="kdnyoExdMql0QSxu1-PT-16" value="" style="edgeStyle=orthogonalEdgeStyle;rounded=0;orthogonalLoop=1;jettySize=auto;html=1;" parent="1" source="kdnyoExdMql0QSxu1-PT-18" target="kdnyoExdMql0QSxu1-PT-30" edge="1">
          <mxGeometry relative="1" as="geometry" />
        </mxCell>
        <mxCell id="kdnyoExdMql0QSxu1-PT-17" style="edgeStyle=orthogonalEdgeStyle;rounded=0;orthogonalLoop=1;jettySize=auto;html=1;endArrow=classic;endFill=1;entryX=0.333;entryY=0.063;entryDx=0;entryDy=0;entryPerimeter=0;" parent="1" target="kdnyoExdMql0QSxu1-PT-31" edge="1">
          <mxGeometry relative="1" as="geometry">
            <mxPoint x="760" y="215" as="sourcePoint" />
            <mxPoint x="810" y="290" as="targetPoint" />
          </mxGeometry>
        </mxCell>
        <mxCell id="kdnyoExdMql0QSxu1-PT-18" value="user" style="ellipse;whiteSpace=wrap;html=1;" parent="1" vertex="1">
          <mxGeometry x="660" y="140" width="120" height="80" as="geometry" />
        </mxCell>
        <mxCell id="kdnyoExdMql0QSxu1-PT-19" style="edgeStyle=orthogonalEdgeStyle;rounded=0;orthogonalLoop=1;jettySize=auto;html=1;" parent="1" source="kdnyoExdMql0QSxu1-PT-22" target="kdnyoExdMql0QSxu1-PT-5" edge="1">
          <mxGeometry relative="1" as="geometry" />
        </mxCell>
        <mxCell id="kdnyoExdMql0QSxu1-PT-20" style="edgeStyle=orthogonalEdgeStyle;rounded=0;orthogonalLoop=1;jettySize=auto;html=1;entryX=0.5;entryY=0;entryDx=0;entryDy=0;" parent="1" edge="1">
          <mxGeometry relative="1" as="geometry">
            <mxPoint x="140" y="110" as="sourcePoint" />
            <mxPoint x="900" y="610" as="targetPoint" />
            <Array as="points">
              <mxPoint x="520" y="110" />
              <mxPoint x="520" y="560" />
              <mxPoint x="900" y="560" />
            </Array>
          </mxGeometry>
        </mxCell>
        <mxCell id="kdnyoExdMql0QSxu1-PT-21" value="@ManytoOne" style="edgeLabel;html=1;align=center;verticalAlign=middle;resizable=0;points=[];" parent="kdnyoExdMql0QSxu1-PT-20" connectable="0" vertex="1">
          <mxGeometry x="0.1413" y="-1" relative="1" as="geometry">
            <mxPoint x="81" y="111" as="offset" />
          </mxGeometry>
        </mxCell>
        <mxCell id="kdnyoExdMql0QSxu1-PT-22" value="id" style="rounded=1;whiteSpace=wrap;html=1;" parent="1" vertex="1">
          <mxGeometry x="50" y="100" width="90" height="30" as="geometry" />
        </mxCell>
        <mxCell id="kdnyoExdMql0QSxu1-PT-23" value="name" style="rounded=1;whiteSpace=wrap;html=1;" parent="1" vertex="1">
          <mxGeometry x="30" y="200" width="90" height="30" as="geometry" />
        </mxCell>
        <mxCell id="kdnyoExdMql0QSxu1-PT-24" value="description" style="rounded=1;whiteSpace=wrap;html=1;" parent="1" vertex="1">
          <mxGeometry x="210" y="310" width="90" height="30" as="geometry" />
        </mxCell>
        <mxCell id="kdnyoExdMql0QSxu1-PT-26" style="edgeStyle=orthogonalEdgeStyle;rounded=0;orthogonalLoop=1;jettySize=auto;html=1;entryX=0.4;entryY=1.05;entryDx=0;entryDy=0;entryPerimeter=0;" parent="1" source="kdnyoExdMql0QSxu1-PT-24" target="kdnyoExdMql0QSxu1-PT-5" edge="1">
          <mxGeometry relative="1" as="geometry" />
        </mxCell>
        <mxCell id="kdnyoExdMql0QSxu1-PT-27" value="user_id" style="whiteSpace=wrap;html=1;" parent="1" vertex="1">
          <mxGeometry x="360" y="265" width="105" height="30" as="geometry" />
        </mxCell>
        <mxCell id="kdnyoExdMql0QSxu1-PT-28" style="edgeStyle=orthogonalEdgeStyle;rounded=0;orthogonalLoop=1;jettySize=auto;html=1;entryX=1;entryY=0.5;entryDx=0;entryDy=0;" parent="1" target="kdnyoExdMql0QSxu1-PT-27" edge="1">
          <mxGeometry relative="1" as="geometry">
            <mxPoint x="670" y="80" as="sourcePoint" />
          </mxGeometry>
        </mxCell>
        <mxCell id="kdnyoExdMql0QSxu1-PT-29" value="name" style="whiteSpace=wrap;html=1;" parent="1" vertex="1">
          <mxGeometry x="830" y="170" width="120" height="60" as="geometry" />
        </mxCell>
        <mxCell id="kdnyoExdMql0QSxu1-PT-30" value="email" style="whiteSpace=wrap;html=1;" parent="1" vertex="1">
          <mxGeometry x="600" y="295" width="120" height="60" as="geometry" />
        </mxCell>
        <mxCell id="kdnyoExdMql0QSxu1-PT-31" value="&lt;div&gt;role &lt;br&gt;&lt;/div&gt;&lt;div&gt;(USER, ADMIN)&lt;br&gt;&lt;/div&gt;" style="ellipse;whiteSpace=wrap;html=1;" parent="1" vertex="1">
          <mxGeometry x="770" y="295" width="120" height="80" as="geometry" />
        </mxCell>
        <mxCell id="kdnyoExdMql0QSxu1-PT-32" style="edgeStyle=orthogonalEdgeStyle;rounded=0;orthogonalLoop=1;jettySize=auto;html=1;entryX=0.5;entryY=1;entryDx=0;entryDy=0;" parent="1" source="kdnyoExdMql0QSxu1-PT-33" target="kdnyoExdMql0QSxu1-PT-41" edge="1">
          <mxGeometry relative="1" as="geometry" />
        </mxCell>
        <mxCell id="kdnyoExdMql0QSxu1-PT-33" value="id" style="whiteSpace=wrap;html=1;" parent="1" vertex="1">
          <mxGeometry x="150" y="440" width="120" height="60" as="geometry" />
        </mxCell>
        <mxCell id="kdnyoExdMql0QSxu1-PT-34" value="&lt;div&gt;name&lt;/div&gt;" style="whiteSpace=wrap;html=1;" parent="1" vertex="1">
          <mxGeometry x="-10" y="600" width="120" height="60" as="geometry" />
        </mxCell>
        <mxCell id="kdnyoExdMql0QSxu1-PT-35" value="order_id" style="whiteSpace=wrap;html=1;" parent="1" vertex="1">
          <mxGeometry x="365" y="600" width="120" height="60" as="geometry" />
        </mxCell>
        <mxCell id="kdnyoExdMql0QSxu1-PT-36" value="id" style="whiteSpace=wrap;html=1;" parent="1" vertex="1">
          <mxGeometry x="660" y="470" width="120" height="60" as="geometry" />
        </mxCell>
        <mxCell id="kdnyoExdMql0QSxu1-PT-37" value="order_id" style="whiteSpace=wrap;html=1;" parent="1" vertex="1">
          <mxGeometry x="840" y="600" width="120" height="60" as="geometry" />
        </mxCell>
        <mxCell id="kdnyoExdMql0QSxu1-PT-38" value="user_id" style="whiteSpace=wrap;html=1;" parent="1" vertex="1">
          <mxGeometry x="670" y="710" width="120" height="60" as="geometry" />
        </mxCell>
        <mxCell id="kdnyoExdMql0QSxu1-PT-39" style="edgeStyle=orthogonalEdgeStyle;rounded=0;orthogonalLoop=1;jettySize=auto;html=1;entryX=0.35;entryY=0.05;entryDx=0;entryDy=0;entryPerimeter=0;" parent="1" source="kdnyoExdMql0QSxu1-PT-22" target="kdnyoExdMql0QSxu1-PT-35" edge="1">
          <mxGeometry relative="1" as="geometry">
            <Array as="points">
              <mxPoint x="407" y="120" />
            </Array>
          </mxGeometry>
        </mxCell>
        <mxCell id="kdnyoExdMql0QSxu1-PT-40" value="@OnetoOne" style="edgeLabel;html=1;align=center;verticalAlign=middle;resizable=0;points=[];" parent="kdnyoExdMql0QSxu1-PT-39" connectable="0" vertex="1">
          <mxGeometry x="0.5093" y="2" relative="1" as="geometry">
            <mxPoint y="31" as="offset" />
          </mxGeometry>
        </mxCell>
        <mxCell id="kdnyoExdMql0QSxu1-PT-41" value="category_id" style="rounded=1;whiteSpace=wrap;html=1;" parent="1" vertex="1">
          <mxGeometry x="40" y="265" width="100" height="45" as="geometry" />
        </mxCell>
        <mxCell id="kdnyoExdMql0QSxu1-PT-42" style="edgeStyle=orthogonalEdgeStyle;rounded=0;orthogonalLoop=1;jettySize=auto;html=1;entryX=0.017;entryY=0.65;entryDx=0;entryDy=0;entryPerimeter=0;" parent="1" edge="1">
          <mxGeometry relative="1" as="geometry">
            <mxPoint x="660" y="70" as="sourcePoint" />
            <mxPoint x="670" y="739" as="targetPoint" />
            <Array as="points">
              <mxPoint x="547.96" y="70" />
              <mxPoint x="547.96" y="739" />
            </Array>
          </mxGeometry>
        </mxCell>
      </root>
    </mxGraphModel>
  </diagram>
  <diagram id="tSPBQoBo9ZfyGbjv74e1" name="Menu-service/Restaurant-service">
    <mxGraphModel dx="1338" dy="446" grid="1" gridSize="10" guides="1" tooltips="1" connect="1" arrows="1" fold="1" page="1" pageScale="1" pageWidth="850" pageHeight="1100" math="0" shadow="0">
      <root>
        <mxCell id="0" />
        <mxCell id="1" parent="0" />
        <mxCell id="HMDivGGVrsfDaxk0Iosy-1" style="edgeStyle=orthogonalEdgeStyle;rounded=0;orthogonalLoop=1;jettySize=auto;html=1;entryX=0.033;entryY=0.75;entryDx=0;entryDy=0;entryPerimeter=0;" parent="1" source="HMDivGGVrsfDaxk0Iosy-7" target="HMDivGGVrsfDaxk0Iosy-4" edge="1">
          <mxGeometry relative="1" as="geometry">
            <Array as="points">
              <mxPoint x="324" y="185" />
            </Array>
          </mxGeometry>
        </mxCell>
        <mxCell id="HMDivGGVrsfDaxk0Iosy-2" style="edgeStyle=orthogonalEdgeStyle;rounded=0;orthogonalLoop=1;jettySize=auto;html=1;entryX=0;entryY=0.5;entryDx=0;entryDy=0;" parent="1" source="HMDivGGVrsfDaxk0Iosy-4" target="HMDivGGVrsfDaxk0Iosy-10" edge="1">
          <mxGeometry relative="1" as="geometry" />
        </mxCell>
        <mxCell id="HMDivGGVrsfDaxk0Iosy-3" style="edgeStyle=orthogonalEdgeStyle;rounded=0;orthogonalLoop=1;jettySize=auto;html=1;entryX=1;entryY=0.75;entryDx=0;entryDy=0;" parent="1" source="HMDivGGVrsfDaxk0Iosy-4" target="HMDivGGVrsfDaxk0Iosy-11" edge="1">
          <mxGeometry relative="1" as="geometry" />
        </mxCell>
        <mxCell id="HMDivGGVrsfDaxk0Iosy-4" value="menuItem" style="ellipse;whiteSpace=wrap;html=1;" parent="1" vertex="1">
          <mxGeometry x="320" y="130" width="120" height="80" as="geometry" />
        </mxCell>
        <mxCell id="HMDivGGVrsfDaxk0Iosy-5" style="edgeStyle=orthogonalEdgeStyle;rounded=0;orthogonalLoop=1;jettySize=auto;html=1;" parent="1" source="HMDivGGVrsfDaxk0Iosy-6" target="HMDivGGVrsfDaxk0Iosy-4" edge="1">
          <mxGeometry relative="1" as="geometry" />
        </mxCell>
        <mxCell id="HMDivGGVrsfDaxk0Iosy-6" value="id" style="rounded=1;whiteSpace=wrap;html=1;" parent="1" vertex="1">
          <mxGeometry x="170" y="70" width="90" height="30" as="geometry" />
        </mxCell>
        <mxCell id="HMDivGGVrsfDaxk0Iosy-7" value="name" style="rounded=1;whiteSpace=wrap;html=1;" parent="1" vertex="1">
          <mxGeometry x="150" y="170" width="90" height="30" as="geometry" />
        </mxCell>
        <mxCell id="HMDivGGVrsfDaxk0Iosy-8" value="description" style="rounded=1;whiteSpace=wrap;html=1;" parent="1" vertex="1">
          <mxGeometry x="330" y="280" width="90" height="30" as="geometry" />
        </mxCell>
        <mxCell id="HMDivGGVrsfDaxk0Iosy-9" style="edgeStyle=orthogonalEdgeStyle;rounded=0;orthogonalLoop=1;jettySize=auto;html=1;entryX=0.4;entryY=1.05;entryDx=0;entryDy=0;entryPerimeter=0;" parent="1" source="HMDivGGVrsfDaxk0Iosy-8" target="HMDivGGVrsfDaxk0Iosy-4" edge="1">
          <mxGeometry relative="1" as="geometry" />
        </mxCell>
        <mxCell id="HMDivGGVrsfDaxk0Iosy-10" value="menu_id" style="whiteSpace=wrap;html=1;" parent="1" vertex="1">
          <mxGeometry x="480" y="235" width="100" height="30" as="geometry" />
        </mxCell>
        <mxCell id="HMDivGGVrsfDaxk0Iosy-11" value="category_id" style="rounded=1;whiteSpace=wrap;html=1;" parent="1" vertex="1">
          <mxGeometry x="160" y="235" width="100" height="45" as="geometry" />
        </mxCell>
        <mxCell id="HMDivGGVrsfDaxk0Iosy-12" style="edgeStyle=orthogonalEdgeStyle;rounded=0;orthogonalLoop=1;jettySize=auto;html=1;entryX=0.033;entryY=0.75;entryDx=0;entryDy=0;entryPerimeter=0;" parent="1" source="HMDivGGVrsfDaxk0Iosy-18" target="HMDivGGVrsfDaxk0Iosy-15" edge="1">
          <mxGeometry relative="1" as="geometry">
            <Array as="points">
              <mxPoint x="824" y="185" />
            </Array>
          </mxGeometry>
        </mxCell>
        <mxCell id="HMDivGGVrsfDaxk0Iosy-13" style="edgeStyle=orthogonalEdgeStyle;rounded=0;orthogonalLoop=1;jettySize=auto;html=1;entryX=0;entryY=0.5;entryDx=0;entryDy=0;" parent="1" source="HMDivGGVrsfDaxk0Iosy-15" target="HMDivGGVrsfDaxk0Iosy-21" edge="1">
          <mxGeometry relative="1" as="geometry" />
        </mxCell>
        <mxCell id="HMDivGGVrsfDaxk0Iosy-15" value="Menu" style="ellipse;whiteSpace=wrap;html=1;" parent="1" vertex="1">
          <mxGeometry x="820" y="130" width="120" height="80" as="geometry" />
        </mxCell>
        <mxCell id="HMDivGGVrsfDaxk0Iosy-16" style="edgeStyle=orthogonalEdgeStyle;rounded=0;orthogonalLoop=1;jettySize=auto;html=1;" parent="1" source="HMDivGGVrsfDaxk0Iosy-17" target="HMDivGGVrsfDaxk0Iosy-15" edge="1">
          <mxGeometry relative="1" as="geometry" />
        </mxCell>
        <mxCell id="HMDivGGVrsfDaxk0Iosy-17" value="id" style="rounded=1;whiteSpace=wrap;html=1;" parent="1" vertex="1">
          <mxGeometry x="670" y="70" width="90" height="30" as="geometry" />
        </mxCell>
        <mxCell id="HMDivGGVrsfDaxk0Iosy-18" value="name" style="rounded=1;whiteSpace=wrap;html=1;" parent="1" vertex="1">
          <mxGeometry x="650" y="170" width="90" height="30" as="geometry" />
        </mxCell>
        <mxCell id="HMDivGGVrsfDaxk0Iosy-19" value="description" style="rounded=1;whiteSpace=wrap;html=1;" parent="1" vertex="1">
          <mxGeometry x="830" y="280" width="90" height="30" as="geometry" />
        </mxCell>
        <mxCell id="HMDivGGVrsfDaxk0Iosy-20" style="edgeStyle=orthogonalEdgeStyle;rounded=0;orthogonalLoop=1;jettySize=auto;html=1;entryX=0.4;entryY=1.05;entryDx=0;entryDy=0;entryPerimeter=0;" parent="1" source="HMDivGGVrsfDaxk0Iosy-19" target="HMDivGGVrsfDaxk0Iosy-15" edge="1">
          <mxGeometry relative="1" as="geometry" />
        </mxCell>
        <mxCell id="HMDivGGVrsfDaxk0Iosy-21" value="restaurant_id" style="whiteSpace=wrap;html=1;" parent="1" vertex="1">
          <mxGeometry x="980" y="235" width="105" height="30" as="geometry" />
        </mxCell>
        <mxCell id="lsgcI9l1fSc8Y__4SY5o-1" style="edgeStyle=orthogonalEdgeStyle;rounded=0;orthogonalLoop=1;jettySize=auto;html=1;entryX=0.033;entryY=0.75;entryDx=0;entryDy=0;entryPerimeter=0;" parent="1" source="lsgcI9l1fSc8Y__4SY5o-7" target="lsgcI9l1fSc8Y__4SY5o-4" edge="1">
          <mxGeometry relative="1" as="geometry">
            <Array as="points">
              <mxPoint x="574" y="475" />
            </Array>
          </mxGeometry>
        </mxCell>
        <mxCell id="lsgcI9l1fSc8Y__4SY5o-4" value="category" style="ellipse;whiteSpace=wrap;html=1;" parent="1" vertex="1">
          <mxGeometry x="570" y="420" width="120" height="80" as="geometry" />
        </mxCell>
        <mxCell id="lsgcI9l1fSc8Y__4SY5o-5" style="edgeStyle=orthogonalEdgeStyle;rounded=0;orthogonalLoop=1;jettySize=auto;html=1;" parent="1" source="lsgcI9l1fSc8Y__4SY5o-6" target="lsgcI9l1fSc8Y__4SY5o-4" edge="1">
          <mxGeometry relative="1" as="geometry" />
        </mxCell>
        <mxCell id="lsgcI9l1fSc8Y__4SY5o-6" value="id" style="rounded=1;whiteSpace=wrap;html=1;" parent="1" vertex="1">
          <mxGeometry x="420" y="360" width="90" height="30" as="geometry" />
        </mxCell>
        <mxCell id="lsgcI9l1fSc8Y__4SY5o-7" value="name" style="rounded=1;whiteSpace=wrap;html=1;" parent="1" vertex="1">
          <mxGeometry x="400" y="460" width="90" height="30" as="geometry" />
        </mxCell>
        <mxCell id="lsgcI9l1fSc8Y__4SY5o-8" value="description" style="rounded=1;whiteSpace=wrap;html=1;" parent="1" vertex="1">
          <mxGeometry x="710" y="530" width="90" height="30" as="geometry" />
        </mxCell>
        <mxCell id="lsgcI9l1fSc8Y__4SY5o-9" style="edgeStyle=orthogonalEdgeStyle;rounded=0;orthogonalLoop=1;jettySize=auto;html=1;entryX=0.4;entryY=1.05;entryDx=0;entryDy=0;entryPerimeter=0;" parent="1" source="lsgcI9l1fSc8Y__4SY5o-8" target="lsgcI9l1fSc8Y__4SY5o-4" edge="1">
          <mxGeometry relative="1" as="geometry" />
        </mxCell>
        <mxCell id="lsgcI9l1fSc8Y__4SY5o-12" value="" style="endArrow=classic;html=1;rounded=0;exitX=0;exitY=0.5;exitDx=0;exitDy=0;entryX=0.5;entryY=0;entryDx=0;entryDy=0;" parent="1" source="HMDivGGVrsfDaxk0Iosy-17" target="HMDivGGVrsfDaxk0Iosy-10" edge="1">
          <mxGeometry width="50" height="50" relative="1" as="geometry">
            <mxPoint x="690" y="160" as="sourcePoint" />
            <mxPoint x="640" y="210" as="targetPoint" />
            <Array as="points">
              <mxPoint x="530" y="85" />
            </Array>
          </mxGeometry>
        </mxCell>
        <mxCell id="lsgcI9l1fSc8Y__4SY5o-13" value="@OnetoMany" style="edgeLabel;html=1;align=center;verticalAlign=middle;resizable=0;points=[];" parent="lsgcI9l1fSc8Y__4SY5o-12" vertex="1" connectable="0">
          <mxGeometry x="0.2276" relative="1" as="geometry">
            <mxPoint y="17" as="offset" />
          </mxGeometry>
        </mxCell>
        <mxCell id="lsgcI9l1fSc8Y__4SY5o-14" style="edgeStyle=orthogonalEdgeStyle;rounded=0;orthogonalLoop=1;jettySize=auto;html=1;entryX=0.033;entryY=0.75;entryDx=0;entryDy=0;entryPerimeter=0;" parent="1" source="lsgcI9l1fSc8Y__4SY5o-20" target="lsgcI9l1fSc8Y__4SY5o-17" edge="1">
          <mxGeometry relative="1" as="geometry">
            <Array as="points">
              <mxPoint x="1434" y="170" />
            </Array>
          </mxGeometry>
        </mxCell>
        <mxCell id="lsgcI9l1fSc8Y__4SY5o-15" style="edgeStyle=orthogonalEdgeStyle;rounded=0;orthogonalLoop=1;jettySize=auto;html=1;entryX=0;entryY=0.5;entryDx=0;entryDy=0;" parent="1" source="lsgcI9l1fSc8Y__4SY5o-17" edge="1">
          <mxGeometry relative="1" as="geometry">
            <mxPoint x="1590" y="235" as="targetPoint" />
          </mxGeometry>
        </mxCell>
        <mxCell id="lsgcI9l1fSc8Y__4SY5o-16" style="edgeStyle=orthogonalEdgeStyle;rounded=0;orthogonalLoop=1;jettySize=auto;html=1;entryX=1;entryY=0.75;entryDx=0;entryDy=0;" parent="1" source="lsgcI9l1fSc8Y__4SY5o-17" target="lsgcI9l1fSc8Y__4SY5o-24" edge="1">
          <mxGeometry relative="1" as="geometry" />
        </mxCell>
        <mxCell id="lsgcI9l1fSc8Y__4SY5o-17" value="Restaurant" style="ellipse;whiteSpace=wrap;html=1;" parent="1" vertex="1">
          <mxGeometry x="1430" y="115" width="120" height="80" as="geometry" />
        </mxCell>
        <mxCell id="lsgcI9l1fSc8Y__4SY5o-18" style="edgeStyle=orthogonalEdgeStyle;rounded=0;orthogonalLoop=1;jettySize=auto;html=1;" parent="1" source="lsgcI9l1fSc8Y__4SY5o-19" target="lsgcI9l1fSc8Y__4SY5o-17" edge="1">
          <mxGeometry relative="1" as="geometry" />
        </mxCell>
        <mxCell id="lsgcI9l1fSc8Y__4SY5o-19" value="id" style="rounded=1;whiteSpace=wrap;html=1;" parent="1" vertex="1">
          <mxGeometry x="1280" y="55" width="90" height="30" as="geometry" />
        </mxCell>
        <mxCell id="lsgcI9l1fSc8Y__4SY5o-20" value="name" style="rounded=1;whiteSpace=wrap;html=1;" parent="1" vertex="1">
          <mxGeometry x="1260" y="155" width="90" height="30" as="geometry" />
        </mxCell>
        <mxCell id="lsgcI9l1fSc8Y__4SY5o-21" value="description" style="rounded=1;whiteSpace=wrap;html=1;" parent="1" vertex="1">
          <mxGeometry x="1410" y="275" width="90" height="30" as="geometry" />
        </mxCell>
        <mxCell id="lsgcI9l1fSc8Y__4SY5o-22" style="edgeStyle=orthogonalEdgeStyle;rounded=0;orthogonalLoop=1;jettySize=auto;html=1;entryX=0.4;entryY=1.05;entryDx=0;entryDy=0;entryPerimeter=0;" parent="1" target="lsgcI9l1fSc8Y__4SY5o-17" edge="1">
          <mxGeometry relative="1" as="geometry">
            <mxPoint x="1485" y="265" as="sourcePoint" />
          </mxGeometry>
        </mxCell>
        <mxCell id="lsgcI9l1fSc8Y__4SY5o-23" value="profile_id" style="whiteSpace=wrap;html=1;" parent="1" vertex="1">
          <mxGeometry x="1560" y="230" width="105" height="30" as="geometry" />
        </mxCell>
        <mxCell id="lsgcI9l1fSc8Y__4SY5o-24" value="website" style="rounded=1;whiteSpace=wrap;html=1;" parent="1" vertex="1">
          <mxGeometry x="1270" y="220" width="100" height="45" as="geometry" />
        </mxCell>
        <mxCell id="lsgcI9l1fSc8Y__4SY5o-25" value="" style="endArrow=classic;html=1;rounded=0;exitX=0;exitY=0.5;exitDx=0;exitDy=0;entryX=0.4;entryY=1.028;entryDx=0;entryDy=0;entryPerimeter=0;" parent="1" source="lsgcI9l1fSc8Y__4SY5o-6" target="HMDivGGVrsfDaxk0Iosy-11" edge="1">
          <mxGeometry width="50" height="50" relative="1" as="geometry">
            <mxPoint x="540" y="410" as="sourcePoint" />
            <mxPoint x="590" y="360" as="targetPoint" />
            <Array as="points">
              <mxPoint x="200" y="375" />
            </Array>
          </mxGeometry>
        </mxCell>
        <mxCell id="lsgcI9l1fSc8Y__4SY5o-26" value="@ManytoOne" style="edgeLabel;html=1;align=center;verticalAlign=middle;resizable=0;points=[];" parent="lsgcI9l1fSc8Y__4SY5o-25" vertex="1" connectable="0">
          <mxGeometry x="-0.1461" y="3" relative="1" as="geometry">
            <mxPoint y="-8" as="offset" />
          </mxGeometry>
        </mxCell>
        <mxCell id="QPlWPPbhwzgue-YJUF4H-1" value="" style="endArrow=classic;html=1;rounded=0;entryX=0;entryY=0.5;entryDx=0;entryDy=0;exitX=1;exitY=0.25;exitDx=0;exitDy=0;" parent="1" source="HMDivGGVrsfDaxk0Iosy-21" target="lsgcI9l1fSc8Y__4SY5o-19" edge="1">
          <mxGeometry width="50" height="50" relative="1" as="geometry">
            <mxPoint x="1220" y="320" as="sourcePoint" />
            <mxPoint x="1270" y="270" as="targetPoint" />
            <Array as="points">
              <mxPoint x="1200" y="240" />
              <mxPoint x="1200" y="70" />
            </Array>
          </mxGeometry>
        </mxCell>
      </root>
    </mxGraphModel>
  </diagram>
  <diagram id="KoP2w-5NSLW-hf5kz3hV" name="Page-4">
    <mxGraphModel dx="1271" dy="424" grid="1" gridSize="10" guides="1" tooltips="1" connect="1" arrows="1" fold="1" page="1" pageScale="1" pageWidth="850" pageHeight="1100" math="0" shadow="0">
      <root>
        <mxCell id="0" />
        <mxCell id="1" parent="0" />
      </root>
    </mxGraphModel>
  </diagram>
</mxfile>
